<svg width="936" height="837" viewBox="0 0 936 837" fill="none" xmlns="http://www.w3.org/2000/svg">
<path d="M79.9107 299.934L63.8955 311.125L62.2368 306.941L63.8514 296.082L70.696 276.694L82.3931 222.034L88.8692 201.716L95.047 187.434L96.3894 174.531L110.281 159.341L119.811 142.653C124.076 135.763 133.034 121.705 134.747 120.595C136.46 119.486 146.898 107.351 151.903 101.422L185.855 87.9594L231.9 69.7023L287.686 55.6509L325.509 51.9493L364.613 54.1941L400.812 64.0451L430.035 76.6623L461.663 92.629L482.04 111.443L498.608 130.153L515.704 158.336L530.105 186.512L541.873 224.338L544.015 251.458L536.6 274.837L543.858 299.928L536.206 310.493L538.601 316.535L546.578 320.364L557.127 333.394L562.287 346.408L567.746 353.387L584.244 365.133L596.012 374.452L607.113 388.876L619.145 402.93L626.938 406.295L673.642 442.639L694.668 461.734L705.41 472.535L714.931 487.047L723.365 493.385L730.42 494.89L763.583 495.726L785.698 494.487L817.93 495.692L850.418 504.325L870.997 518.218L886.196 529.403L910.759 546.557L925.485 560.62L932.786 572.247L916.288 560.501L897.561 548.563L868.987 536.227L843.556 529.099L810.779 523.807L763.224 520.61L741.689 515.164L727.095 517.724L704.05 519.331L677.109 519.256L649.703 519.365L627.343 510.481L596.532 500.645L577.383 475.428L561.446 462.383L542.289 439.859L527.177 401.745L508.932 355.73L503.719 330.366L495.847 322.73L498.786 304.352L493.81 291.803L489.019 279.718L479.392 269.013L462.051 259.215L447.844 257.318L438.541 261.006L425.133 270.626L405.598 278.371L359.605 280.471L306.18 282.829L239.582 279.115L191.843 275.453L148.079 277.745L107.641 285.711L79.9107 299.934Z" fill="url(#paint0_linear)" stroke="#463939" stroke-width="5"/>
<defs>
<linearGradient id="paint0_linear" x1="334.688" y1="28.9466" x2="602.098" y2="703.366" gradientUnits="userSpaceOnUse">
<stop stop-color="#573F3F"/>
<stop offset="1" stop-color="#573F3F" stop-opacity="0"/>
</linearGradient>
</defs>
</svg>
