<svg width="51" height="51" viewBox="0 0 51 51" fill="none" xmlns="http://www.w3.org/2000/svg">
<g filter="url(#filter0_d)">
<circle cx="25.5" cy="21.5" r="21.5" fill="url(#paint0_linear)"/>
</g>
<path d="M21.0852 17.1041V12.2911C21.0852 12.2911 21.3989 10.854 22.0043 10.1853C23.4351 8.60489 26.0883 8.60489 27.5192 10.1853C28.1245 10.854 28.4383 12.2911 28.4383 12.2911V17.1041M17.4086 17.1041C17.4085 21.9172 16.4893 28.836 17.4086 30.0392C18.3278 31.2425 19.524 31.5846 21.0852 32.145C24.1193 33.234 26.3629 33.3349 29.3575 32.145C30.8036 31.5703 32.1149 30.9417 32.7277 30.0392C33.3404 29.1368 32.7277 22.218 32.7277 17.1041C32.7277 11.9902 31.1378 15.8475 29.9702 15.2992C26.4082 13.6266 23.3281 13.4468 19.8596 15.2992C18.8086 15.8606 17.4087 12.2911 17.4086 17.1041Z" stroke="#4B4444"/>
<defs>
<filter id="filter0_d" x="0" y="0" width="51" height="51" filterUnits="userSpaceOnUse" color-interpolation-filters="sRGB">
<feFlood flood-opacity="0" result="BackgroundImageFix"/>
<feColorMatrix in="SourceAlpha" type="matrix" values="0 0 0 0 0 0 0 0 0 0 0 0 0 0 0 0 0 0 127 0"/>
<feOffset dy="4"/>
<feGaussianBlur stdDeviation="2"/>
<feColorMatrix type="matrix" values="0 0 0 0 0 0 0 0 0 0 0 0 0 0 0 0 0 0 0.25 0"/>
<feBlend mode="normal" in2="BackgroundImageFix" result="effect1_dropShadow"/>
<feBlend mode="normal" in="SourceGraphic" in2="effect1_dropShadow" result="shape"/>
</filter>
<linearGradient id="paint0_linear" x1="25.5" y1="0" x2="25.5" y2="43" gradientUnits="userSpaceOnUse">
<stop stop-color="#C4C4C4"/>
<stop offset="1" stop-color="#857F7F"/>
</linearGradient>
</defs>
</svg>
