<svg width="29" height="29" viewBox="0 0 29 29" fill="none" xmlns="http://www.w3.org/2000/svg">
<circle cx="14.5" cy="14.5" r="14.5" fill="#4B4444" fill-opacity="0.4"/>
<path d="M22.1666 22.125V20.2083C22.1666 19.1917 21.7627 18.2166 21.0438 17.4978C20.3249 16.7789 19.3499 16.375 18.3333 16.375H10.6666C9.64992 16.375 8.6749 16.7789 7.95601 17.4978C7.23712 18.2166 6.83325 19.1917 6.83325 20.2083V22.125" stroke="#857F7F" stroke-width="2" stroke-linecap="round" stroke-linejoin="round"/>
<path d="M14.5001 12.5417C16.6172 12.5417 18.3334 10.8254 18.3334 8.70833C18.3334 6.59124 16.6172 4.875 14.5001 4.875C12.383 4.875 10.6667 6.59124 10.6667 8.70833C10.6667 10.8254 12.383 12.5417 14.5001 12.5417Z" stroke="#857F7F" stroke-width="2" stroke-linecap="round" stroke-linejoin="round"/>
</svg>
